<svg xmlns="http://www.w3.org/2000/svg" viewBox="0 0 115.77 180"><defs><style>.cls-1{fill:#f59d28;}.cls-2{fill:#074c7b;}</style></defs><g id="Layer_2" data-name="Layer 2"><g id="Layer_1-2" data-name="Layer 1"><path class="cls-1" d="M49,114.79l-6.54-6.55a12.74,12.74,0,0,1,0-18h0a21.9,21.9,0,0,1,14.77-6.46A20.67,20.67,0,0,1,73,90a20.38,20.38,0,0,1,2.32,2.75l-22,22.06A3,3,0,0,1,49,114.79Z"/><path class="cls-1" d="M79.33,105.15a21.42,21.42,0,0,1-21.41,21.41,21.55,21.55,0,0,1-15.29-6.34,20.4,20.4,0,0,1-5.82-10.93l11.1,11.1a4.46,4.46,0,0,0,6.32,0l18.12-18.12a4.09,4.09,0,0,1,7,2.88Z"/><path class="cls-1" d="M114.11,90c-7.65-4.62-11.9-6.28-12.11-23.62A45.23,45.23,0,0,0,35.17,37.45a6.75,6.75,0,0,1-8.51-1.28l-7.44-8.56A3.69,3.69,0,0,0,12.74,30l-.05,46C7.81,82.31,6,83.55,3.85,91.34,2.51,96.21,0,108.62,0,113.81V3.83A3.84,3.84,0,0,1,6.72,1.3L25.35,22.23a6.71,6.71,0,0,0,7.92,1.54A57.91,57.91,0,0,1,114.11,90Z"/><path class="cls-2" d="M114.11,90A58,58,0,0,0,56,46C38.61,46.52,23,55.45,12.74,68.67A61.11,61.11,0,0,0,2.05,90a57.43,57.43,0,0,0-2,15.14v71a3.84,3.84,0,0,0,6.72,2.53l18.63-20.93a6.71,6.71,0,0,1,7.92-1.54A57.91,57.91,0,0,0,114.11,90Zm-11,16.24a42.26,42.26,0,0,1-1.1,7.38,45.23,45.23,0,0,1-66.83,28.93,6.75,6.75,0,0,0-8.51,1.28l-7.44,8.56A3.69,3.69,0,0,1,12.74,150V105.57c0-.69-.05-1.41-.05-2.13a44.39,44.39,0,0,1,2-13.41V90a45.26,45.26,0,0,1,88.38,16.27Z"/></g></g></svg>