<svg xmlns="http://www.w3.org/2000/svg" viewBox="0 0 67.07 104.28"><defs><style>.cls-1{fill:#ff9f1c;}.cls-2{fill:#064b7a;}</style></defs><g id="Layer_2" data-name="Layer 2"><g id="Layer_1-2" data-name="Layer 1"><path class="cls-1" d="M28.39,66.5,24.6,62.71a7.38,7.38,0,0,1,0-10.46h0a12.64,12.64,0,0,1,8.55-3.75,12,12,0,0,1,9.14,3.63,11.73,11.73,0,0,1,1.35,1.59L30.88,66.5A1.76,1.76,0,0,1,28.39,66.5Z"/><path class="cls-1" d="M46,60.92a12.43,12.43,0,0,1-12.41,12.4,12.54,12.54,0,0,1-8.86-3.67,11.87,11.87,0,0,1-3.37-6.34l6.44,6.43a2.59,2.59,0,0,0,3.66,0l10.5-10.49a2.37,2.37,0,0,1,4,1.67Z"/><path class="cls-1" d="M66.1,52.14c-4.43-2.68-6.89-3.64-7-13.69A26.2,26.2,0,0,0,20.37,21.7,3.9,3.9,0,0,1,15.44,21L11.14,16a2.14,2.14,0,0,0-3.76,1.4L7.35,44c-2.82,3.64-3.9,4.36-5.12,8.87-.77,2.83-2.23,10-2.23,13V2.22A2.23,2.23,0,0,1,3.89.75l10.8,12.13a3.9,3.9,0,0,0,4.59.89A33.55,33.55,0,0,1,66.1,52.14Z"/><path class="cls-2" d="M66.1,52.14A33.14,33.14,0,0,0,7.38,39.78,35.42,35.42,0,0,0,1.19,52.14,33.26,33.26,0,0,0,0,60.91v41.15a2.22,2.22,0,0,0,3.89,1.46L14.69,91.4a3.89,3.89,0,0,1,4.59-.9A33.54,33.54,0,0,0,66.1,52.14Zm-6.37,9.4a25.25,25.25,0,0,1-.64,4.28A26.2,26.2,0,0,1,20.37,82.58a3.91,3.91,0,0,0-4.93.74l-4.3,5a2.14,2.14,0,0,1-3.76-1.41V61.16c0-.4,0-.82,0-1.24a25.65,25.65,0,0,1,1.18-7.77v0a26.22,26.22,0,0,1,51.2,9.42Z"/></g></g></svg>