<svg xmlns="http://www.w3.org/2000/svg" viewBox="0 0 182.87 123.64"><defs><style>.cls-1{fill:#064b7a;}.cls-2{fill:#ff9f1c;}</style></defs><g id="Layer_2" data-name="Layer 2"><g id="Layer_1-2" data-name="Layer 1"><path class="cls-1" d="M14.66,71.47a14.29,14.29,0,0,1,5.72,1.15,15.1,15.1,0,0,1,4.68,3.14,14.49,14.49,0,0,1,3.17,4.65,14.73,14.73,0,0,1,0,11.41,14.94,14.94,0,0,1-7.85,7.89,14.28,14.28,0,0,1-5.72,1.14H5.82v16.84A5.82,5.82,0,0,1,0,123.51H0V86.13a14.28,14.28,0,0,1,1.14-5.72,14.77,14.77,0,0,1,3.15-4.65A14.6,14.6,0,0,1,9,72.62,14.44,14.44,0,0,1,14.66,71.47Zm3.46,22.87a8.76,8.76,0,0,0,4.75-4.74,8.84,8.84,0,0,0,.69-3.47,8.63,8.63,0,0,0-.69-3.44A9,9,0,0,0,21,79.88,8.73,8.73,0,0,0,18.12,78a9,9,0,0,0-3.46-.68,8.8,8.8,0,0,0-3.44.68,8.89,8.89,0,0,0-2.81,1.9,9,9,0,0,0-1.9,2.81,8.63,8.63,0,0,0-.69,3.44V95h8.84A8.8,8.8,0,0,0,18.12,94.34Z"/><path class="cls-1" d="M28.06,109.3a14,14,0,0,1,1.12-5.57,14.26,14.26,0,0,1,7.61-7.58,14.36,14.36,0,0,1,11.12,0,14.89,14.89,0,0,1,4.56,3,14.14,14.14,0,0,1,3.09,4.53,14.48,14.48,0,0,1,0,11.12,14.24,14.24,0,0,1-3.09,4.58,14.69,14.69,0,0,1-4.56,3.1,14.18,14.18,0,0,1-15.67-3.1,14.49,14.49,0,0,1-3.06-4.58A14,14,0,0,1,28.06,109.3Zm5.61,0a8.75,8.75,0,0,0,.67,3.38,8.72,8.72,0,0,0,14.15,2.77A8.61,8.61,0,0,0,51,109.3a8.47,8.47,0,0,0-.66-3.34,8.77,8.77,0,0,0-1.85-2.74A8.7,8.7,0,0,0,34.34,106,8.48,8.48,0,0,0,33.67,109.3Z"/><path class="cls-1" d="M64.91,82.35v41.16H59.09V82.35Z"/><path class="cls-1" d="M73,82.35v41.16H67.14V82.35Z"/><path class="cls-1" d="M118.62,98.54c-.35-.35-.73-.67-1.1-1,.37-.31.75-.63,1.1-1a15,15,0,0,0,3.13-4.65,14.73,14.73,0,0,0,0-11.41,15,15,0,0,0-3.13-4.71,14.66,14.66,0,0,0-20.79,0,14.64,14.64,0,0,0-3.17,4.71,15.75,15.75,0,0,0-.69,2,15,15,0,0,0-.45,3.68v22.72A14.86,14.86,0,0,0,94,112.6a14,14,0,0,0,.69,2,14.84,14.84,0,0,0,7.89,7.89,14.87,14.87,0,0,0,11.42,0,14.74,14.74,0,0,0,4.65-3.18,15.15,15.15,0,0,0,3.13-4.71,14.75,14.75,0,0,0,0-11.42A15.11,15.11,0,0,0,118.62,98.54ZM99.35,86.19a8.79,8.79,0,0,1,.68-3.46,8.48,8.48,0,0,1,1.9-2.85,8.83,8.83,0,0,1,6.31-2.58,8.59,8.59,0,0,1,3.44.68,9.17,9.17,0,0,1,2.81,1.9,8.79,8.79,0,0,1,1.9,2.85,9,9,0,0,1,.69,3.46,8.77,8.77,0,0,1-.69,3.44,9.17,9.17,0,0,1-1.9,2.81,8.83,8.83,0,0,1-2.81,1.9,3.52,3.52,0,0,1-.51.19,8.39,8.39,0,0,1-2.93.5H99.35Zm17,26.2a8.86,8.86,0,0,1-4.71,4.74,8.59,8.59,0,0,1-3.44.68,8.87,8.87,0,0,1-3.47-.68,8.78,8.78,0,0,1-4.74-4.74,8.85,8.85,0,0,1-.68-3.48v-8.83h8.89a8.39,8.39,0,0,1,2.93.5,3.52,3.52,0,0,1,.51.19,8.94,8.94,0,0,1,4.71,4.71,8.79,8.79,0,0,1,.69,3.43A9,9,0,0,1,116.39,112.39Z"/><path class="cls-2" d="M173.45,109.33l9.41-9.94L178.49,95,175,98.58l0,0-6,6-6.41-6.42h0A10.63,10.63,0,0,0,154.94,95h-16a14,14,0,0,0-5.55,1.12,14.27,14.27,0,0,0-4.55,3,14.49,14.49,0,0,0-3.06,4.53,14.48,14.48,0,0,0,0,11.12,14.64,14.64,0,0,0,3.06,4.59,14.35,14.35,0,0,0,15.68,3.09,14.54,14.54,0,0,0,7.64-7.68,14.09,14.09,0,0,0-2.92-15.46h1.21a10.62,10.62,0,0,1,7.71,3.31l6.29,6.63-4.57,4.82-3.14,3.32-1.7,1.81.39.38,4,4,9.54-9.53,0,0,9.55,9.55,3.93-3.93.42-.4Zm-26.51,3.36a8.75,8.75,0,0,1-1.85,2.76,8.74,8.74,0,0,1-12.3,0,8.63,8.63,0,0,1-2.52-6.15,8.51,8.51,0,0,1,.67-3.34,8.89,8.89,0,0,1,1.85-2.74,8.75,8.75,0,0,1,12.3,0,8.89,8.89,0,0,1,1.85,2.74,8.51,8.51,0,0,1,.67,3.34A8.76,8.76,0,0,1,146.94,112.69Z"/><path class="cls-2" d="M87.91,45.58,85.31,43a5.06,5.06,0,0,1,0-7.17h0a8.68,8.68,0,0,1,5.86-2.56,8.17,8.17,0,0,1,6.27,2.48,7.71,7.71,0,0,1,.92,1.09l-8.75,8.76A1.21,1.21,0,0,1,87.91,45.58Z"/><path class="cls-2" d="M100,41.75a8.29,8.29,0,0,1-2.5,6,8.17,8.17,0,0,1-6,2.48,8.52,8.52,0,0,1-6.07-2.51,8.07,8.07,0,0,1-2.31-4.35l4.4,4.41a1.76,1.76,0,0,0,2.51,0l7.2-7.19A1.62,1.62,0,0,1,100,41.75Z"/><path class="cls-1" d="M113.76,35.74a22.72,22.72,0,0,0-40.25-8.47,24,24,0,0,0-4.24,8.47,22.7,22.7,0,0,0-.82,6V70a1.53,1.53,0,0,0,2.67,1l7.4-8.31A2.66,2.66,0,0,1,81.66,62a23,23,0,0,0,32.1-26.29Zm-4.37,6.44a17,17,0,0,1-.44,2.94A18,18,0,0,1,82.41,56.6a2.68,2.68,0,0,0-3.37.51l-3,3.4a1.46,1.46,0,0,1-2.57-1V41.92c0-.28,0-.56,0-.85a17.66,17.66,0,0,1,.8-5.32v0a18,18,0,0,1,35.1,6.45Z"/><path class="cls-2" d="M113.76,35.74A22.68,22.68,0,0,0,109,26.36,18,18,0,0,0,82.41,14.87,2.65,2.65,0,0,1,79,14.36l-3-3.4a1.46,1.46,0,0,0-2.57,1V27.27a24,24,0,0,0-4.24,8.47,22.7,22.7,0,0,0-.82,6V1.52a1.53,1.53,0,0,1,2.67-1l7.4,8.31a2.65,2.65,0,0,0,3.14.61,23,23,0,0,1,32.1,26.3Z"/></g></g></svg>